<mxfile host="Electron" modified="2023-08-16T19:19:51.299Z" agent="Mozilla/5.0 (Macintosh; Intel Mac OS X 10_15_7) AppleWebKit/537.36 (KHTML, like Gecko) draw.io/21.6.8 Chrome/114.0.5735.289 Electron/25.5.0 Safari/537.36" etag="wrvxaWCo8BjC61uZpzAH" version="21.6.8" type="device">
  <diagram name="omag-server-platform" id="Dl-jfd4jh1dtPhGWNfl4">
    <mxGraphModel dx="1343" dy="865" grid="1" gridSize="10" guides="1" tooltips="1" connect="1" arrows="1" fold="1" page="1" pageScale="1" pageWidth="850" pageHeight="1100" math="0" shadow="0">
      <root>
        <mxCell id="fCwrAneLEY61tobPp7tf-0" />
        <mxCell id="fCwrAneLEY61tobPp7tf-1" parent="fCwrAneLEY61tobPp7tf-0" />
        <mxCell id="YIRUWJYIqjxylFFTU3_E-0" style="edgeStyle=orthogonalEdgeStyle;rounded=0;orthogonalLoop=1;jettySize=auto;html=1;exitX=1;exitY=0.5;exitDx=0;exitDy=0;entryX=0;entryY=0.5;entryDx=0;entryDy=0;" parent="fCwrAneLEY61tobPp7tf-1" source="fCwrAneLEY61tobPp7tf-4" target="fCwrAneLEY61tobPp7tf-65" edge="1">
          <mxGeometry relative="1" as="geometry" />
        </mxCell>
        <mxCell id="YIRUWJYIqjxylFFTU3_E-1" style="edgeStyle=orthogonalEdgeStyle;rounded=0;orthogonalLoop=1;jettySize=auto;html=1;exitX=1;exitY=0.5;exitDx=0;exitDy=0;entryX=0;entryY=0.5;entryDx=0;entryDy=0;" parent="fCwrAneLEY61tobPp7tf-1" source="fCwrAneLEY61tobPp7tf-4" target="fCwrAneLEY61tobPp7tf-7" edge="1">
          <mxGeometry relative="1" as="geometry" />
        </mxCell>
        <mxCell id="YIRUWJYIqjxylFFTU3_E-2" style="edgeStyle=orthogonalEdgeStyle;rounded=0;orthogonalLoop=1;jettySize=auto;html=1;exitX=1;exitY=0.5;exitDx=0;exitDy=0;entryX=0;entryY=0.5;entryDx=0;entryDy=0;" parent="fCwrAneLEY61tobPp7tf-1" source="fCwrAneLEY61tobPp7tf-4" target="fCwrAneLEY61tobPp7tf-45" edge="1">
          <mxGeometry relative="1" as="geometry" />
        </mxCell>
        <mxCell id="fCwrAneLEY61tobPp7tf-4" value="Egeria Deployment Directory" style="rounded=0;whiteSpace=wrap;html=1;" parent="fCwrAneLEY61tobPp7tf-1" vertex="1">
          <mxGeometry x="50" y="730" width="120" height="60" as="geometry" />
        </mxCell>
        <mxCell id="fCwrAneLEY61tobPp7tf-5" value="content-packs" style="rounded=0;whiteSpace=wrap;html=1;" parent="fCwrAneLEY61tobPp7tf-1" vertex="1">
          <mxGeometry x="439" y="950" width="120" height="30" as="geometry" />
        </mxCell>
        <mxCell id="YIRUWJYIqjxylFFTU3_E-8" style="edgeStyle=orthogonalEdgeStyle;rounded=0;orthogonalLoop=1;jettySize=auto;html=1;exitX=1;exitY=0.5;exitDx=0;exitDy=0;" parent="fCwrAneLEY61tobPp7tf-1" source="fCwrAneLEY61tobPp7tf-6" target="fCwrAneLEY61tobPp7tf-19" edge="1">
          <mxGeometry relative="1" as="geometry" />
        </mxCell>
        <mxCell id="YIRUWJYIqjxylFFTU3_E-9" style="edgeStyle=orthogonalEdgeStyle;rounded=0;orthogonalLoop=1;jettySize=auto;html=1;exitX=1;exitY=0.5;exitDx=0;exitDy=0;entryX=0;entryY=0.5;entryDx=0;entryDy=0;" parent="fCwrAneLEY61tobPp7tf-1" source="fCwrAneLEY61tobPp7tf-6" target="fCwrAneLEY61tobPp7tf-18" edge="1">
          <mxGeometry relative="1" as="geometry" />
        </mxCell>
        <mxCell id="fCwrAneLEY61tobPp7tf-6" value="data" style="rounded=0;whiteSpace=wrap;html=1;" parent="fCwrAneLEY61tobPp7tf-1" vertex="1">
          <mxGeometry x="440" y="695" width="119" height="30" as="geometry" />
        </mxCell>
        <mxCell id="FgOpKPS9IGW25cBo7YGT-2" style="edgeStyle=orthogonalEdgeStyle;rounded=0;orthogonalLoop=1;jettySize=auto;html=1;exitX=1;exitY=0.5;exitDx=0;exitDy=0;entryX=0;entryY=0.5;entryDx=0;entryDy=0;" parent="fCwrAneLEY61tobPp7tf-1" source="fCwrAneLEY61tobPp7tf-7" target="fCwrAneLEY61tobPp7tf-10" edge="1">
          <mxGeometry relative="1" as="geometry" />
        </mxCell>
        <mxCell id="FgOpKPS9IGW25cBo7YGT-3" style="edgeStyle=orthogonalEdgeStyle;rounded=0;orthogonalLoop=1;jettySize=auto;html=1;exitX=1;exitY=0.5;exitDx=0;exitDy=0;entryX=0;entryY=0.5;entryDx=0;entryDy=0;" parent="fCwrAneLEY61tobPp7tf-1" source="fCwrAneLEY61tobPp7tf-7" target="fCwrAneLEY61tobPp7tf-30" edge="1">
          <mxGeometry relative="1" as="geometry" />
        </mxCell>
        <mxCell id="FgOpKPS9IGW25cBo7YGT-4" style="edgeStyle=orthogonalEdgeStyle;rounded=0;orthogonalLoop=1;jettySize=auto;html=1;exitX=1;exitY=0.5;exitDx=0;exitDy=0;entryX=0;entryY=0.5;entryDx=0;entryDy=0;" parent="fCwrAneLEY61tobPp7tf-1" source="fCwrAneLEY61tobPp7tf-7" target="fCwrAneLEY61tobPp7tf-60" edge="1">
          <mxGeometry relative="1" as="geometry" />
        </mxCell>
        <mxCell id="FgOpKPS9IGW25cBo7YGT-5" style="edgeStyle=orthogonalEdgeStyle;rounded=0;orthogonalLoop=1;jettySize=auto;html=1;exitX=1;exitY=0.5;exitDx=0;exitDy=0;" parent="fCwrAneLEY61tobPp7tf-1" source="fCwrAneLEY61tobPp7tf-7" target="fCwrAneLEY61tobPp7tf-8" edge="1">
          <mxGeometry relative="1" as="geometry" />
        </mxCell>
        <mxCell id="FgOpKPS9IGW25cBo7YGT-6" style="edgeStyle=orthogonalEdgeStyle;rounded=0;orthogonalLoop=1;jettySize=auto;html=1;exitX=1;exitY=0.5;exitDx=0;exitDy=0;" parent="fCwrAneLEY61tobPp7tf-1" source="fCwrAneLEY61tobPp7tf-7" target="fCwrAneLEY61tobPp7tf-9" edge="1">
          <mxGeometry relative="1" as="geometry" />
        </mxCell>
        <mxCell id="FgOpKPS9IGW25cBo7YGT-7" style="edgeStyle=orthogonalEdgeStyle;rounded=0;orthogonalLoop=1;jettySize=auto;html=1;exitX=1;exitY=0.5;exitDx=0;exitDy=0;entryX=0;entryY=0.5;entryDx=0;entryDy=0;" parent="fCwrAneLEY61tobPp7tf-1" source="fCwrAneLEY61tobPp7tf-7" target="fCwrAneLEY61tobPp7tf-62" edge="1">
          <mxGeometry relative="1" as="geometry" />
        </mxCell>
        <mxCell id="FgOpKPS9IGW25cBo7YGT-8" style="edgeStyle=orthogonalEdgeStyle;rounded=0;orthogonalLoop=1;jettySize=auto;html=1;exitX=1;exitY=0.5;exitDx=0;exitDy=0;entryX=0;entryY=0.5;entryDx=0;entryDy=0;" parent="fCwrAneLEY61tobPp7tf-1" source="fCwrAneLEY61tobPp7tf-7" target="fCwrAneLEY61tobPp7tf-6" edge="1">
          <mxGeometry relative="1" as="geometry" />
        </mxCell>
        <mxCell id="FgOpKPS9IGW25cBo7YGT-9" style="edgeStyle=orthogonalEdgeStyle;rounded=0;orthogonalLoop=1;jettySize=auto;html=1;exitX=1;exitY=0.5;exitDx=0;exitDy=0;entryX=0;entryY=0.5;entryDx=0;entryDy=0;" parent="fCwrAneLEY61tobPp7tf-1" source="fCwrAneLEY61tobPp7tf-7" target="fCwrAneLEY61tobPp7tf-71" edge="1">
          <mxGeometry relative="1" as="geometry" />
        </mxCell>
        <mxCell id="fCwrAneLEY61tobPp7tf-7" value="platform" style="rounded=0;whiteSpace=wrap;html=1;" parent="fCwrAneLEY61tobPp7tf-1" vertex="1">
          <mxGeometry x="260" y="630" width="90" height="30" as="geometry" />
        </mxCell>
        <mxCell id="fCwrAneLEY61tobPp7tf-8" value="lib" style="rounded=0;whiteSpace=wrap;html=1;" parent="fCwrAneLEY61tobPp7tf-1" vertex="1">
          <mxGeometry x="440" y="600" width="119" height="30" as="geometry" />
        </mxCell>
        <mxCell id="fCwrAneLEY61tobPp7tf-9" value="extra" style="rounded=0;whiteSpace=wrap;html=1;" parent="fCwrAneLEY61tobPp7tf-1" vertex="1">
          <mxGeometry x="440" y="647" width="119" height="30" as="geometry" />
        </mxCell>
        <mxCell id="fCwrAneLEY61tobPp7tf-10" value="omag-server-platform-xyz.jar" style="rounded=0;whiteSpace=wrap;html=1;strokeColor=none;align=left;spacingLeft=4;" parent="fCwrAneLEY61tobPp7tf-1" vertex="1">
          <mxGeometry x="440" y="465" width="170" height="30" as="geometry" />
        </mxCell>
        <mxCell id="fCwrAneLEY61tobPp7tf-17" style="edgeStyle=orthogonalEdgeStyle;rounded=0;orthogonalLoop=1;jettySize=auto;html=1;exitX=1;exitY=0.5;exitDx=0;exitDy=0;entryX=0;entryY=0.5;entryDx=0;entryDy=0;" parent="fCwrAneLEY61tobPp7tf-1" source="fCwrAneLEY61tobPp7tf-18" target="fCwrAneLEY61tobPp7tf-29" edge="1">
          <mxGeometry relative="1" as="geometry">
            <mxPoint x="745" y="640" as="targetPoint" />
          </mxGeometry>
        </mxCell>
        <mxCell id="fCwrAneLEY61tobPp7tf-18" value="platform" style="rounded=0;whiteSpace=wrap;html=1;" parent="fCwrAneLEY61tobPp7tf-1" vertex="1">
          <mxGeometry x="640" y="625" width="70" height="30" as="geometry" />
        </mxCell>
        <mxCell id="fCwrAneLEY61tobPp7tf-19" value="servers" style="rounded=0;whiteSpace=wrap;html=1;" parent="fCwrAneLEY61tobPp7tf-1" vertex="1">
          <mxGeometry x="640" y="695" width="70" height="30" as="geometry" />
        </mxCell>
        <mxCell id="fCwrAneLEY61tobPp7tf-20" value="" style="group" parent="fCwrAneLEY61tobPp7tf-1" vertex="1" connectable="0">
          <mxGeometry x="761" y="695" width="89" height="50" as="geometry" />
        </mxCell>
        <mxCell id="fCwrAneLEY61tobPp7tf-21" value="server1" style="rounded=0;whiteSpace=wrap;html=1;" parent="fCwrAneLEY61tobPp7tf-20" vertex="1">
          <mxGeometry width="76.2857142857143" height="30" as="geometry" />
        </mxCell>
        <mxCell id="fCwrAneLEY61tobPp7tf-22" value="server1" style="rounded=0;whiteSpace=wrap;html=1;" parent="fCwrAneLEY61tobPp7tf-20" vertex="1">
          <mxGeometry x="6.3571428571428585" y="10" width="76.2857142857143" height="30" as="geometry" />
        </mxCell>
        <mxCell id="fCwrAneLEY61tobPp7tf-23" value="serverN" style="rounded=0;whiteSpace=wrap;html=1;" parent="fCwrAneLEY61tobPp7tf-20" vertex="1">
          <mxGeometry x="12.714285714285717" y="20" width="76.2857142857143" height="30" as="geometry" />
        </mxCell>
        <mxCell id="fCwrAneLEY61tobPp7tf-24" value="" style="endArrow=classic;html=1;rounded=0;entryX=0;entryY=0.5;entryDx=0;entryDy=0;exitX=1;exitY=0.5;exitDx=0;exitDy=0;" parent="fCwrAneLEY61tobPp7tf-1" source="fCwrAneLEY61tobPp7tf-19" target="fCwrAneLEY61tobPp7tf-21" edge="1">
          <mxGeometry width="50" height="50" relative="1" as="geometry">
            <mxPoint x="595" y="825" as="sourcePoint" />
            <mxPoint x="645" y="775" as="targetPoint" />
          </mxGeometry>
        </mxCell>
        <mxCell id="fCwrAneLEY61tobPp7tf-29" value="keys" style="rounded=0;whiteSpace=wrap;html=1;" parent="fCwrAneLEY61tobPp7tf-1" vertex="1">
          <mxGeometry x="760" y="625" width="90" height="30" as="geometry" />
        </mxCell>
        <mxCell id="fCwrAneLEY61tobPp7tf-30" value="application.properties" style="rounded=0;whiteSpace=wrap;html=1;strokeColor=none;align=left;spacingLeft=4;" parent="fCwrAneLEY61tobPp7tf-1" vertex="1">
          <mxGeometry x="440" y="495" width="130" height="30" as="geometry" />
        </mxCell>
        <mxCell id="fCwrAneLEY61tobPp7tf-31" value="sample clients" style="rounded=0;whiteSpace=wrap;html=1;" parent="fCwrAneLEY61tobPp7tf-1" vertex="1">
          <mxGeometry x="439" y="1066" width="120" height="30" as="geometry" />
        </mxCell>
        <mxCell id="fCwrAneLEY61tobPp7tf-32" style="edgeStyle=orthogonalEdgeStyle;rounded=0;orthogonalLoop=1;jettySize=auto;html=1;exitX=1;exitY=0.5;exitDx=0;exitDy=0;entryX=0;entryY=0.5;entryDx=0;entryDy=0;" parent="fCwrAneLEY61tobPp7tf-1" source="fCwrAneLEY61tobPp7tf-34" target="fCwrAneLEY61tobPp7tf-56" edge="1">
          <mxGeometry relative="1" as="geometry">
            <Array as="points">
              <mxPoint x="760" y="785" />
              <mxPoint x="760" y="825" />
            </Array>
          </mxGeometry>
        </mxCell>
        <mxCell id="fCwrAneLEY61tobPp7tf-33" style="edgeStyle=orthogonalEdgeStyle;rounded=0;orthogonalLoop=1;jettySize=auto;html=1;exitX=1;exitY=0.5;exitDx=0;exitDy=0;entryX=0;entryY=0.5;entryDx=0;entryDy=0;" parent="fCwrAneLEY61tobPp7tf-1" source="fCwrAneLEY61tobPp7tf-34" target="fCwrAneLEY61tobPp7tf-55" edge="1">
          <mxGeometry relative="1" as="geometry" />
        </mxCell>
        <mxCell id="fCwrAneLEY61tobPp7tf-34" value="platform" style="rounded=0;whiteSpace=wrap;html=1;" parent="fCwrAneLEY61tobPp7tf-1" vertex="1">
          <mxGeometry x="641" y="770" width="69" height="30" as="geometry" />
        </mxCell>
        <mxCell id="fCwrAneLEY61tobPp7tf-35" value="repository" style="rounded=0;whiteSpace=wrap;html=1;" parent="fCwrAneLEY61tobPp7tf-1" vertex="1">
          <mxGeometry x="910" y="715" width="92" height="30" as="geometry" />
        </mxCell>
        <mxCell id="fCwrAneLEY61tobPp7tf-36" value="config" style="rounded=0;whiteSpace=wrap;html=1;" parent="fCwrAneLEY61tobPp7tf-1" vertex="1">
          <mxGeometry x="910" y="755" width="92" height="30" as="geometry" />
        </mxCell>
        <mxCell id="fCwrAneLEY61tobPp7tf-39" value="cohort registry" style="rounded=0;whiteSpace=wrap;html=1;" parent="fCwrAneLEY61tobPp7tf-1" vertex="1">
          <mxGeometry x="910" y="675" width="92" height="30" as="geometry" />
        </mxCell>
        <mxCell id="fCwrAneLEY61tobPp7tf-40" value="sample data" style="rounded=0;whiteSpace=wrap;html=1;" parent="fCwrAneLEY61tobPp7tf-1" vertex="1">
          <mxGeometry x="439" y="1028" width="120" height="30" as="geometry" />
        </mxCell>
        <mxCell id="fCwrAneLEY61tobPp7tf-41" style="edgeStyle=orthogonalEdgeStyle;rounded=0;orthogonalLoop=1;jettySize=auto;html=1;entryX=0;entryY=0.5;entryDx=0;entryDy=0;" parent="fCwrAneLEY61tobPp7tf-1" source="fCwrAneLEY61tobPp7tf-45" target="fCwrAneLEY61tobPp7tf-5" edge="1">
          <mxGeometry relative="1" as="geometry" />
        </mxCell>
        <mxCell id="fCwrAneLEY61tobPp7tf-42" style="edgeStyle=orthogonalEdgeStyle;rounded=0;orthogonalLoop=1;jettySize=auto;html=1;exitX=1;exitY=0.5;exitDx=0;exitDy=0;entryX=0;entryY=0.5;entryDx=0;entryDy=0;" parent="fCwrAneLEY61tobPp7tf-1" source="fCwrAneLEY61tobPp7tf-45" target="fCwrAneLEY61tobPp7tf-40" edge="1">
          <mxGeometry relative="1" as="geometry" />
        </mxCell>
        <mxCell id="fCwrAneLEY61tobPp7tf-43" style="edgeStyle=orthogonalEdgeStyle;rounded=0;orthogonalLoop=1;jettySize=auto;html=1;exitX=1;exitY=0.5;exitDx=0;exitDy=0;entryX=0;entryY=0.5;entryDx=0;entryDy=0;" parent="fCwrAneLEY61tobPp7tf-1" source="fCwrAneLEY61tobPp7tf-45" target="fCwrAneLEY61tobPp7tf-31" edge="1">
          <mxGeometry relative="1" as="geometry" />
        </mxCell>
        <mxCell id="fCwrAneLEY61tobPp7tf-44" style="edgeStyle=orthogonalEdgeStyle;rounded=0;orthogonalLoop=1;jettySize=auto;html=1;exitX=1;exitY=0.5;exitDx=0;exitDy=0;entryX=0;entryY=0.5;entryDx=0;entryDy=0;" parent="fCwrAneLEY61tobPp7tf-1" source="fCwrAneLEY61tobPp7tf-45" target="fCwrAneLEY61tobPp7tf-68" edge="1">
          <mxGeometry relative="1" as="geometry" />
        </mxCell>
        <mxCell id="fCwrAneLEY61tobPp7tf-45" value="opt" style="rounded=0;whiteSpace=wrap;html=1;" parent="fCwrAneLEY61tobPp7tf-1" vertex="1">
          <mxGeometry x="260" y="950" width="90" height="30" as="geometry" />
        </mxCell>
        <mxCell id="fCwrAneLEY61tobPp7tf-49" style="edgeStyle=orthogonalEdgeStyle;rounded=0;orthogonalLoop=1;jettySize=auto;html=1;exitX=1;exitY=0.5;exitDx=0;exitDy=0;entryX=0;entryY=0.5;entryDx=0;entryDy=0;" parent="fCwrAneLEY61tobPp7tf-1" source="fCwrAneLEY61tobPp7tf-23" target="fCwrAneLEY61tobPp7tf-35" edge="1">
          <mxGeometry relative="1" as="geometry" />
        </mxCell>
        <mxCell id="fCwrAneLEY61tobPp7tf-50" value="debug logs" style="rounded=0;whiteSpace=wrap;html=1;" parent="fCwrAneLEY61tobPp7tf-1" vertex="1">
          <mxGeometry x="779" y="860" width="70" height="30" as="geometry" />
        </mxCell>
        <mxCell id="fCwrAneLEY61tobPp7tf-51" value="serverN" style="rounded=0;whiteSpace=wrap;html=1;" parent="fCwrAneLEY61tobPp7tf-1" vertex="1">
          <mxGeometry x="641" y="840" width="69" height="30" as="geometry" />
        </mxCell>
        <mxCell id="fCwrAneLEY61tobPp7tf-52" style="edgeStyle=orthogonalEdgeStyle;rounded=0;orthogonalLoop=1;jettySize=auto;html=1;exitX=1;exitY=0.5;exitDx=0;exitDy=0;entryX=0;entryY=0.5;entryDx=0;entryDy=0;" parent="fCwrAneLEY61tobPp7tf-1" source="fCwrAneLEY61tobPp7tf-54" target="fCwrAneLEY61tobPp7tf-50" edge="1">
          <mxGeometry relative="1" as="geometry" />
        </mxCell>
        <mxCell id="fCwrAneLEY61tobPp7tf-53" value="serverN" style="rounded=0;whiteSpace=wrap;html=1;" parent="fCwrAneLEY61tobPp7tf-1" vertex="1">
          <mxGeometry x="651" y="850" width="69" height="30" as="geometry" />
        </mxCell>
        <mxCell id="fCwrAneLEY61tobPp7tf-54" value="serverN" style="rounded=0;whiteSpace=wrap;html=1;" parent="fCwrAneLEY61tobPp7tf-1" vertex="1">
          <mxGeometry x="661" y="860" width="69" height="30" as="geometry" />
        </mxCell>
        <mxCell id="fCwrAneLEY61tobPp7tf-55" value="debug logs" style="rounded=0;whiteSpace=wrap;html=1;" parent="fCwrAneLEY61tobPp7tf-1" vertex="1">
          <mxGeometry x="779" y="770" width="70" height="30" as="geometry" />
        </mxCell>
        <mxCell id="fCwrAneLEY61tobPp7tf-56" value="access logs" style="rounded=0;whiteSpace=wrap;html=1;" parent="fCwrAneLEY61tobPp7tf-1" vertex="1">
          <mxGeometry x="779" y="810" width="70" height="30" as="geometry" />
        </mxCell>
        <mxCell id="fCwrAneLEY61tobPp7tf-57" style="edgeStyle=orthogonalEdgeStyle;rounded=0;orthogonalLoop=1;jettySize=auto;html=1;exitX=1;exitY=0.5;exitDx=0;exitDy=0;entryX=0;entryY=0.5;entryDx=0;entryDy=0;" parent="fCwrAneLEY61tobPp7tf-1" source="fCwrAneLEY61tobPp7tf-23" target="fCwrAneLEY61tobPp7tf-39" edge="1">
          <mxGeometry relative="1" as="geometry" />
        </mxCell>
        <mxCell id="fCwrAneLEY61tobPp7tf-58" style="edgeStyle=orthogonalEdgeStyle;rounded=0;orthogonalLoop=1;jettySize=auto;html=1;exitX=1;exitY=0.5;exitDx=0;exitDy=0;entryX=0;entryY=0.5;entryDx=0;entryDy=0;" parent="fCwrAneLEY61tobPp7tf-1" source="fCwrAneLEY61tobPp7tf-23" target="fCwrAneLEY61tobPp7tf-36" edge="1">
          <mxGeometry relative="1" as="geometry" />
        </mxCell>
        <mxCell id="fCwrAneLEY61tobPp7tf-60" value="trust store" style="rounded=0;whiteSpace=wrap;html=1;strokeColor=none;align=left;spacingLeft=4;" parent="fCwrAneLEY61tobPp7tf-1" vertex="1">
          <mxGeometry x="440" y="525" width="80" height="30" as="geometry" />
        </mxCell>
        <mxCell id="fCwrAneLEY61tobPp7tf-62" value="key store" style="rounded=0;whiteSpace=wrap;html=1;strokeColor=none;align=left;spacingLeft=4;" parent="fCwrAneLEY61tobPp7tf-1" vertex="1">
          <mxGeometry x="440" y="555" width="70" height="30" as="geometry" />
        </mxCell>
        <mxCell id="FgOpKPS9IGW25cBo7YGT-11" style="edgeStyle=orthogonalEdgeStyle;rounded=0;orthogonalLoop=1;jettySize=auto;html=1;exitX=1;exitY=0.5;exitDx=0;exitDy=0;entryX=0;entryY=0.5;entryDx=0;entryDy=0;" parent="fCwrAneLEY61tobPp7tf-1" source="fCwrAneLEY61tobPp7tf-65" target="fCwrAneLEY61tobPp7tf-66" edge="1">
          <mxGeometry relative="1" as="geometry" />
        </mxCell>
        <mxCell id="FgOpKPS9IGW25cBo7YGT-12" style="edgeStyle=orthogonalEdgeStyle;rounded=0;orthogonalLoop=1;jettySize=auto;html=1;exitX=1;exitY=0.5;exitDx=0;exitDy=0;entryX=0;entryY=0.5;entryDx=0;entryDy=0;" parent="fCwrAneLEY61tobPp7tf-1" source="fCwrAneLEY61tobPp7tf-65" target="fCwrAneLEY61tobPp7tf-67" edge="1">
          <mxGeometry relative="1" as="geometry" />
        </mxCell>
        <mxCell id="fCwrAneLEY61tobPp7tf-65" value="etc" style="rounded=0;whiteSpace=wrap;html=1;" parent="fCwrAneLEY61tobPp7tf-1" vertex="1">
          <mxGeometry x="260" y="845" width="90" height="30" as="geometry" />
        </mxCell>
        <mxCell id="fCwrAneLEY61tobPp7tf-66" value="docker files" style="rounded=0;whiteSpace=wrap;html=1;" parent="fCwrAneLEY61tobPp7tf-1" vertex="1">
          <mxGeometry x="439" y="845" width="120" height="30" as="geometry" />
        </mxCell>
        <mxCell id="fCwrAneLEY61tobPp7tf-67" value="utilities" style="rounded=0;whiteSpace=wrap;html=1;" parent="fCwrAneLEY61tobPp7tf-1" vertex="1">
          <mxGeometry x="439" y="890" width="120" height="30" as="geometry" />
        </mxCell>
        <mxCell id="fCwrAneLEY61tobPp7tf-68" value="sample utilities" style="rounded=0;whiteSpace=wrap;html=1;" parent="fCwrAneLEY61tobPp7tf-1" vertex="1">
          <mxGeometry x="439" y="989" width="120" height="30" as="geometry" />
        </mxCell>
        <mxCell id="fCwrAneLEY61tobPp7tf-69" style="edgeStyle=orthogonalEdgeStyle;rounded=0;orthogonalLoop=1;jettySize=auto;html=1;exitX=1;exitY=0.5;exitDx=0;exitDy=0;entryX=0;entryY=0.5;entryDx=0;entryDy=0;" parent="fCwrAneLEY61tobPp7tf-1" source="fCwrAneLEY61tobPp7tf-71" target="fCwrAneLEY61tobPp7tf-51" edge="1">
          <mxGeometry relative="1" as="geometry">
            <Array as="points">
              <mxPoint x="600" y="785" />
              <mxPoint x="600" y="855" />
            </Array>
          </mxGeometry>
        </mxCell>
        <mxCell id="fCwrAneLEY61tobPp7tf-70" style="edgeStyle=orthogonalEdgeStyle;rounded=0;orthogonalLoop=1;jettySize=auto;html=1;exitX=1;exitY=0.5;exitDx=0;exitDy=0;entryX=0;entryY=0.5;entryDx=0;entryDy=0;" parent="fCwrAneLEY61tobPp7tf-1" source="fCwrAneLEY61tobPp7tf-71" target="fCwrAneLEY61tobPp7tf-34" edge="1">
          <mxGeometry relative="1" as="geometry" />
        </mxCell>
        <mxCell id="fCwrAneLEY61tobPp7tf-71" value="logs" style="rounded=0;whiteSpace=wrap;html=1;" parent="fCwrAneLEY61tobPp7tf-1" vertex="1">
          <mxGeometry x="440" y="770" width="119" height="30" as="geometry" />
        </mxCell>
        <mxCell id="FgOpKPS9IGW25cBo7YGT-0" value="postman collections" style="rounded=0;whiteSpace=wrap;html=1;" parent="fCwrAneLEY61tobPp7tf-1" vertex="1">
          <mxGeometry x="439" y="1140" width="120" height="30" as="geometry" />
        </mxCell>
        <mxCell id="FgOpKPS9IGW25cBo7YGT-1" style="edgeStyle=orthogonalEdgeStyle;rounded=0;orthogonalLoop=1;jettySize=auto;html=1;exitX=1;exitY=0.5;exitDx=0;exitDy=0;entryX=0;entryY=0.5;entryDx=0;entryDy=0;" parent="fCwrAneLEY61tobPp7tf-1" source="fCwrAneLEY61tobPp7tf-45" target="FgOpKPS9IGW25cBo7YGT-0" edge="1">
          <mxGeometry relative="1" as="geometry">
            <mxPoint x="359" y="1080" as="sourcePoint" />
          </mxGeometry>
        </mxCell>
        <mxCell id="YIRUWJYIqjxylFFTU3_E-3" value="sample configs" style="rounded=0;whiteSpace=wrap;html=1;" parent="fCwrAneLEY61tobPp7tf-1" vertex="1">
          <mxGeometry x="439" y="1104" width="120" height="30" as="geometry" />
        </mxCell>
        <mxCell id="YIRUWJYIqjxylFFTU3_E-4" style="edgeStyle=orthogonalEdgeStyle;rounded=0;orthogonalLoop=1;jettySize=auto;html=1;exitX=1;exitY=0.5;exitDx=0;exitDy=0;entryX=0;entryY=0.5;entryDx=0;entryDy=0;" parent="fCwrAneLEY61tobPp7tf-1" source="fCwrAneLEY61tobPp7tf-45" target="YIRUWJYIqjxylFFTU3_E-3" edge="1">
          <mxGeometry relative="1" as="geometry">
            <mxPoint x="350" y="1000" as="sourcePoint" />
          </mxGeometry>
        </mxCell>
        <mxCell id="YIRUWJYIqjxylFFTU3_E-6" value="audit logs" style="rounded=0;whiteSpace=wrap;html=1;" parent="fCwrAneLEY61tobPp7tf-1" vertex="1">
          <mxGeometry x="780" y="900" width="70" height="30" as="geometry" />
        </mxCell>
        <mxCell id="YIRUWJYIqjxylFFTU3_E-7" style="edgeStyle=orthogonalEdgeStyle;rounded=0;orthogonalLoop=1;jettySize=auto;html=1;exitX=1;exitY=0.5;exitDx=0;exitDy=0;entryX=0;entryY=0.5;entryDx=0;entryDy=0;" parent="fCwrAneLEY61tobPp7tf-1" source="fCwrAneLEY61tobPp7tf-54" target="YIRUWJYIqjxylFFTU3_E-6" edge="1">
          <mxGeometry relative="1" as="geometry">
            <mxPoint x="731" y="915" as="sourcePoint" />
            <Array as="points">
              <mxPoint x="760" y="875" />
              <mxPoint x="760" y="915" />
            </Array>
          </mxGeometry>
        </mxCell>
      </root>
    </mxGraphModel>
  </diagram>
</mxfile>
